<svg width="60" height="60" viewBox="0 0 60 60" fill="none" xmlns="http://www.w3.org/2000/svg">
<path fill-rule="evenodd" clip-rule="evenodd" d="M60 0H0V60H60V0ZM8.01227 24.6686L8.07396 36.905L8.219 36.9979C13.9594 34.9121 19.3318 34.9139 19.3318 34.9139L19.2579 27.0716C14.6933 26.9947 8.01227 24.6686 8.01227 24.6686ZM21.612 26.9994L25.2917 26.9274L25.3653 34.9136H21.7592L21.612 26.9994ZM28.8776 31.0245L31.2536 28.5467L33.7479 30.9375L31.4066 33.5309L28.8776 31.0245ZM27.6471 21.1321L35.5506 21.0962L35.6242 24.8328H27.7574L27.6471 21.1321ZM32.3164 37.5517L37.9407 32.0905L40.3669 34.9145L35.0734 40.1745L32.3164 37.5517ZM25.3632 7.6433L37.8828 7.58301C37.8828 7.58301 35.3926 14.4363 35.3139 18.8976L27.6944 18.9339C27.6944 18.9339 27.4022 13.3956 25.2681 7.78506L25.3632 7.6433ZM43.4124 51.4174L52.1975 42.6991L52.1617 42.5333C46.5868 40.0556 42.3631 36.3525 42.3631 36.3525L37.0162 41.6582C40.197 44.8588 43.4124 51.4174 43.4124 51.4174Z" fill="#D7D7D7"/>
</svg>
