<?xml version="1.0" encoding="utf-8"?>
<svg xmlns="http://www.w3.org/2000/svg">
<symbol id="back" viewBox="0 0 24 24">
<path fill="none" d="M9 14L4 9L9 4" stroke="currentColor" stroke-width="2" stroke-linecap="round" stroke-linejoin="round"/>
<path fill="none" d="M4 9H14.5C15.2223 9 15.9375 9.14226 16.6048 9.41866C17.272 9.69506 17.8784 10.1002 18.3891 10.6109C18.8998 11.1216 19.3049 11.728 19.5813 12.3952C19.8577 13.0625 20 13.7777 20 14.5C20 15.2223 19.8577 15.9375 19.5813 16.6048C19.3049 17.272 18.8998 17.8784 18.3891 18.3891C17.8784 18.8998 17.272 19.3049 16.6048 19.5813C15.9375 19.8577 15.2223 20 14.5 20H11" stroke="currentColor" stroke-width="2" stroke-linecap="round" stroke-linejoin="round"/>

</symbol>
<symbol id="close" viewBox="0 0 24 24">
<path fill="none" d="M7 7L12 12M12 12L17 17M12 12L17 7M12 12L7 17" stroke="currentColor" stroke-width="2" stroke-linecap="round"/>

</symbol>
<symbol id="copy" viewBox="0 0 20 20">
<path fill="none" d="M16.1667 16.6667H8C7.72386 16.6667 7.5 16.4428 7.5 16.1667V8C7.5 7.72386 7.72386 7.5 8 7.5H16.1667C16.4428 7.5 16.6667 7.72386 16.6667 8V16.1667C16.6667 16.4428 16.4428 16.6667 16.1667 16.6667Z" stroke="currentColor" stroke-linecap="round" stroke-linejoin="round"/>
<path fill="none" d="M12.4999 7.50001V3.83334C12.4999 3.5572 12.2761 3.33334 11.9999 3.33334H3.83325C3.55711 3.33334 3.33325 3.5572 3.33325 3.83334V12C3.33325 12.2762 3.55711 12.5 3.83325 12.5H7.49992" stroke="currentColor" stroke-linecap="round" stroke-linejoin="round"/>

</symbol>
<symbol id="error" viewBox="0 0 16 16">
<path stroke="none" fill-rule="evenodd" clip-rule="evenodd" d="M2 8C2 4.41 4.91 1.5 8.5 1.5C12.09 1.5 15 4.41 15 8C15 11.59 12.09 14.5 8.5 14.5C4.91 14.5 2 11.59 2 8ZM8.5 5.5C8.63261 5.5 8.75979 5.55268 8.85355 5.64645C8.94732 5.74022 9 5.86739 9 6V8.5C9 8.63261 8.94732 8.75979 8.85355 8.85355C8.75979 8.94732 8.63261 9 8.5 9C8.36739 9 8.24022 8.94732 8.14645 8.85355C8.05268 8.75979 8 8.63261 8 8.5V6C8 5.86739 8.05268 5.74022 8.14645 5.64645C8.24022 5.55268 8.36739 5.5 8.5 5.5ZM8.5 11C8.63261 11 8.75979 10.9473 8.85355 10.8536C8.94732 10.7598 9 10.6326 9 10.5C9 10.3674 8.94732 10.2402 8.85355 10.1464C8.75979 10.0527 8.63261 10 8.5 10C8.36739 10 8.24022 10.0527 8.14645 10.1464C8.05268 10.2402 8 10.3674 8 10.5C8 10.6326 8.05268 10.7598 8.14645 10.8536C8.24022 10.9473 8.36739 11 8.5 11Z" fill="currentColor"/>

</symbol>
<symbol id="key" viewBox="0 0 20 20">
<path stroke="none" fill-rule="evenodd" clip-rule="evenodd" d="M13.125 1.25C12.3047 1.24991 11.4943 1.42923 10.7507 1.77539C10.007 2.12154 9.34804 2.62616 8.81998 3.25387C8.29191 3.88157 7.90753 4.61718 7.69376 5.40912C7.47999 6.20106 7.44202 7.03017 7.5825 7.83833C7.63833 8.16333 7.55583 8.43583 7.39833 8.59333L1.98167 14.0092C1.5131 14.478 1.24992 15.1138 1.25 15.7767V18.125C1.25 18.47 1.53 18.75 1.875 18.75H5C5.16576 18.75 5.32473 18.6842 5.44194 18.5669C5.55915 18.4497 5.625 18.2908 5.625 18.125V16.875H6.875C7.04076 16.875 7.19973 16.8092 7.31694 16.6919C7.43415 16.5747 7.5 16.4158 7.5 16.25V15H8.75C8.9157 14.9999 9.07457 14.9339 9.19167 14.8167L11.4067 12.6017C11.565 12.4442 11.8375 12.3617 12.1617 12.4183C12.9291 12.5505 13.7156 12.522 14.4714 12.3344C15.2272 12.1469 15.9358 11.8044 16.5524 11.3288C17.169 10.8531 17.6801 10.2546 18.0534 9.57118C18.4266 8.88774 18.6539 8.13423 18.7209 7.35839C18.7878 6.58254 18.6929 5.80125 18.4422 5.06398C18.1914 4.32672 17.7904 3.64954 17.2643 3.07534C16.7383 2.50113 16.0988 2.0424 15.3863 1.72819C14.6737 1.41399 13.9037 1.25115 13.125 1.25ZM13.125 3.75C12.9592 3.75 12.8003 3.81585 12.6831 3.93306C12.5658 4.05027 12.5 4.20924 12.5 4.375C12.5 4.54076 12.5658 4.69973 12.6831 4.81694C12.8003 4.93415 12.9592 5 13.125 5C13.6223 5 14.0992 5.19754 14.4508 5.54917C14.8025 5.90081 15 6.37772 15 6.875C15 7.04076 15.0658 7.19973 15.1831 7.31694C15.3003 7.43415 15.4592 7.5 15.625 7.5C15.7908 7.5 15.9497 7.43415 16.0669 7.31694C16.1842 7.19973 16.25 7.04076 16.25 6.875C16.25 6.0462 15.9208 5.25134 15.3347 4.66529C14.7487 4.07924 13.9538 3.75 13.125 3.75Z" fill="currentColor"/>

</symbol>
<symbol id="minimize" viewBox="0 0 24 24">
<rect stroke="none" x="4" y="11" width="16" height="2" rx="1" fill="currentColor"/>

</symbol></svg>