<svg width="16" height="16" viewBox="0 0 16 16" xmlns="http://www.w3.org/2000/svg">
<path stroke="none" fill-rule="evenodd" clip-rule="evenodd" d="M2 8C2 4.41 4.91 1.5 8.5 1.5C12.09 1.5 15 4.41 15 8C15 11.59 12.09 14.5 8.5 14.5C4.91 14.5 2 11.59 2 8ZM8.5 5.5C8.63261 5.5 8.75979 5.55268 8.85355 5.64645C8.94732 5.74022 9 5.86739 9 6V8.5C9 8.63261 8.94732 8.75979 8.85355 8.85355C8.75979 8.94732 8.63261 9 8.5 9C8.36739 9 8.24022 8.94732 8.14645 8.85355C8.05268 8.75979 8 8.63261 8 8.5V6C8 5.86739 8.05268 5.74022 8.14645 5.64645C8.24022 5.55268 8.36739 5.5 8.5 5.5ZM8.5 11C8.63261 11 8.75979 10.9473 8.85355 10.8536C8.94732 10.7598 9 10.6326 9 10.5C9 10.3674 8.94732 10.2402 8.85355 10.1464C8.75979 10.0527 8.63261 10 8.5 10C8.36739 10 8.24022 10.0527 8.14645 10.1464C8.05268 10.2402 8 10.3674 8 10.5C8 10.6326 8.05268 10.7598 8.14645 10.8536C8.24022 10.9473 8.36739 11 8.5 11Z" fill="currentColor"/>
</svg>
